M48
; DRILL file KiCad 10.0.6 date 2026-09-28T22:11:18
; FORMAT={-:-/ absolute / metric / decimal}
; #@! TF.CreationDate,2026-09-28T22:11:18-04:00
; #@! TF.GenerationSoftware,Kicad,Pcbnew,10.0.6
; #@! TF.FileFunction,Plated,1,2,PTH
FMAT,2
METRIC
; #@! TA.AperFunction,Plated,PTH,ViaDrill
T1C0.400
; #@! TA.AperFunction,Plated,PTH,ComponentDrill
T2C0.800
; #@! TA.AperFunction,Plated,PTH,ComponentDrill
T3C0.900
; #@! TA.AperFunction,Plated,PTH,ComponentDrill
T4C1.000
; #@! TA.AperFunction,Plated,PTH,ComponentDrill
T5C1.100
; #@! TA.AperFunction,Plated,PTH,ComponentDrill
T6C1.200
; #@! TA.AperFunction,Plated,PTH,ComponentDrill
T7C1.300
; #@! TA.AperFunction,Plated,PTH,ComponentDrill
T8C1.600
%
G90
G05
T1
X83.347Y-121.277
X93.826Y-118.911
X111.157Y-90.626
X131.747Y-72.941
X131.955Y-119.886
X132.11Y-117.733
X132.89Y-99.78
X132.894Y-98.581
X132.9Y-124.093
X133.281Y-117.983
X141.548Y-134.078
X148.752Y-119.388
X153.791Y-80.446
X166.525Y-137.708
T2
X56.0Y-130.0
X60.0Y-123.0
X62.5Y-123.0
X66.16Y-130.0
X72.0Y-106.0
X72.0Y-123.0
X77.0Y-106.0
X77.0Y-123.0
X78.0Y-87.84
X78.0Y-98.0
X82.0Y-87.84
X82.0Y-98.0
X86.0Y-93.0
X86.0Y-98.0
X128.0Y-116.0
X128.0Y-121.0
X128.0Y-126.0
X129.5Y-75.0
X129.5Y-85.16
X133.0Y-75.0
X133.0Y-85.16
X133.0Y-121.0
X138.0Y-121.0
X138.16Y-116.0
X138.16Y-126.0
X142.0Y-116.0
X142.0Y-126.0
X143.0Y-121.0
X143.5Y-75.0
X143.5Y-85.16
X147.0Y-75.0
X147.0Y-85.16
X148.0Y-121.0
X152.16Y-116.0
X152.16Y-126.0
X153.0Y-121.0
X156.0Y-116.0
X156.0Y-126.0
X157.5Y-75.0
X157.5Y-85.16
X158.0Y-121.0
X161.0Y-75.0
X161.0Y-85.16
X163.0Y-121.0
X166.16Y-116.0
X166.16Y-126.0
X168.0Y-104.0
X168.0Y-109.0
X168.0Y-121.0
X170.0Y-116.0
X170.0Y-126.0
X172.0Y-86.0
X172.0Y-91.0
X172.0Y-96.0
X173.0Y-121.0
X178.16Y-104.0
X178.16Y-109.0
X179.62Y-86.0
X180.0Y-121.0
X180.16Y-116.0
X180.16Y-126.0
X182.0Y-104.0
X182.16Y-91.0
X182.16Y-96.0
X184.0Y-86.0
X184.0Y-116.0
X184.54Y-104.0
X186.54Y-86.0
X187.08Y-104.0
X189.08Y-86.0
X190.16Y-121.0
X192.0Y-104.0
X192.0Y-109.0
X194.16Y-116.0
X196.0Y-86.0
X196.0Y-91.0
X196.0Y-96.0
X196.0Y-121.0
X198.0Y-116.0
X202.16Y-104.0
X202.16Y-109.0
X203.62Y-86.0
X206.0Y-104.0
X206.16Y-91.0
X206.16Y-96.0
X206.16Y-121.0
X208.0Y-86.0
X208.16Y-116.0
X208.54Y-104.0
X210.54Y-86.0
X211.08Y-104.0
X213.08Y-86.0
T3
X72.0Y-130.0
X74.54Y-130.0
T4
X60.0Y-100.0
X60.0Y-114.0
X62.54Y-114.0
X65.0Y-100.0
X65.08Y-114.0
X95.0Y-82.0
X95.0Y-84.54
X95.0Y-87.08
X95.0Y-89.62
X95.0Y-92.16
X95.0Y-94.7
X95.0Y-97.24
X95.0Y-99.78
X95.0Y-102.32
X95.0Y-104.86
X95.0Y-107.4
X95.0Y-109.94
X95.0Y-112.48
X95.0Y-115.02
X95.0Y-117.56
X95.0Y-120.1
X95.0Y-122.64
X95.0Y-125.18
X95.0Y-127.72
X117.86Y-82.0
X117.86Y-84.54
X117.86Y-87.08
X117.86Y-89.62
X117.86Y-92.16
X117.86Y-94.7
X117.86Y-97.24
X117.86Y-99.78
X117.86Y-102.32
X117.86Y-104.86
X117.86Y-107.4
X117.86Y-109.94
X117.86Y-112.48
X117.86Y-115.02
X117.86Y-117.56
X117.86Y-120.1
X117.86Y-122.64
X117.86Y-125.18
X117.86Y-127.72
X120.4Y-82.0
X120.4Y-84.54
X120.4Y-87.08
X120.4Y-89.62
X120.4Y-92.16
X120.4Y-94.7
X120.4Y-97.24
X120.4Y-99.78
X120.4Y-102.32
X120.4Y-104.86
X120.4Y-107.4
X120.4Y-109.94
X120.4Y-112.48
X120.4Y-115.02
X120.4Y-117.56
X120.4Y-120.1
X120.4Y-122.64
X120.4Y-125.18
X120.4Y-127.72
X150.0Y-133.0
X152.54Y-133.0
X155.08Y-133.0
X157.62Y-133.0
X160.16Y-133.0
X162.7Y-133.0
X173.95Y-67.05
X173.95Y-79.05
X197.95Y-67.05
X197.95Y-79.05
T5
X132.5Y-70.0
X135.04Y-70.0
X137.58Y-70.0
X146.5Y-70.0
X149.04Y-70.0
X151.58Y-70.0
X160.5Y-70.0
X163.04Y-70.0
X165.58Y-70.0
T6
X58.0Y-90.0
X68.16Y-90.0
T7
X56.0Y-70.0
X62.0Y-57.0
X62.0Y-148.0
X67.08Y-57.0
X67.08Y-148.0
X72.16Y-148.0
X78.5Y-70.0
X82.0Y-148.0
X87.08Y-148.0
X92.16Y-148.0
X102.0Y-148.0
X107.08Y-148.0
X112.16Y-148.0
X122.0Y-148.0
X127.08Y-148.0
X132.16Y-148.0
X135.0Y-57.0
X137.24Y-148.0
X140.08Y-57.0
X146.0Y-148.0
X149.0Y-57.0
X151.08Y-148.0
X154.08Y-57.0
X156.16Y-148.0
X163.0Y-57.0
X166.0Y-148.0
X168.08Y-57.0
X171.08Y-148.0
X172.0Y-73.0
X176.16Y-148.0
X177.0Y-57.0
X181.24Y-148.0
X182.08Y-57.0
X186.15Y-79.05
X186.2Y-67.0
X190.0Y-148.0
X191.0Y-57.0
X195.08Y-148.0
X196.0Y-73.0
X196.08Y-57.0
X200.16Y-148.0
X201.16Y-57.0
X205.24Y-148.0
X206.24Y-57.0
X210.15Y-79.05
X210.2Y-67.0
T8
X58.0Y-82.0
X73.24Y-82.0
X138.5Y-75.0
X138.5Y-90.24
X152.5Y-75.0
X152.5Y-90.24
X166.5Y-75.0
X166.5Y-90.24
M30
