solid OpenSCAD_Model
  facet normal -1 0 0
    outer loop
      vertex 0 0 0
      vertex 0 22.0352 2
      vertex 0 22.0352 0
    endloop
  endfacet
  facet normal -1 -0 0
    outer loop
      vertex 0 22.0352 2
      vertex 0 0 0
      vertex 0 0 2
    endloop
  endfacet
  facet normal -1 0 0
    outer loop
      vertex 0 24.0648 0
      vertex 0 46.1 2
      vertex 0 46.1 0
    endloop
  endfacet
  facet normal -1 -0 0
    outer loop
      vertex 0 46.1 2
      vertex 0 24.0648 0
      vertex 0 24.0648 2
    endloop
  endfacet
  facet normal 0 0 1
    outer loop
      vertex 2.5 21.9212 2
      vertex 2.46673 21.8833 2
      vertex 2.5 2.5 2
    endloop
  endfacet
  facet normal -0 0 1
    outer loop
      vertex 32.4667 21.8833 2
      vertex 32.6 0 2
      vertex 32.6 22.0352 2
    endloop
  endfacet
  facet normal -0 0 1
    outer loop
      vertex 32.3045 21.741 2
      vertex 32.6 0 2
      vertex 32.4667 21.8833 2
    endloop
  endfacet
  facet normal 0 0 1
    outer loop
      vertex 30.1 2.5 2
      vertex 32.3045 21.741 2
      vertex 32.125 21.6211 2
    endloop
  endfacet
  facet normal 0 0 1
    outer loop
      vertex 30.1 2.5 2
      vertex 32.125 21.6211 2
      vertex 31.9314 21.5256 2
    endloop
  endfacet
  facet normal 0 0 1
    outer loop
      vertex 30.1 2.5 2
      vertex 31.9314 21.5256 2
      vertex 31.7271 21.4562 2
    endloop
  endfacet
  facet normal 0 0 1
    outer loop
      vertex 30.1 2.5 2
      vertex 31.7271 21.4562 2
      vertex 31.5154 21.4141 2
    endloop
  endfacet
  facet normal 0 0 1
    outer loop
      vertex 30.1 2.5 2
      vertex 31.5154 21.4141 2
      vertex 31.3 21.4 2
    endloop
  endfacet
  facet normal 0 0 1
    outer loop
      vertex 30.1 2.5 2
      vertex 31.3 21.4 2
      vertex 31.0846 21.4141 2
    endloop
  endfacet
  facet normal 0 0 1
    outer loop
      vertex 30.1 2.5 2
      vertex 31.0846 21.4141 2
      vertex 30.8729 21.4562 2
    endloop
  endfacet
  facet normal 0 0 1
    outer loop
      vertex 30.1 2.5 2
      vertex 30.8729 21.4562 2
      vertex 30.6686 21.5256 2
    endloop
  endfacet
  facet normal 0 0 1
    outer loop
      vertex 30.1 2.5 2
      vertex 30.6686 21.5256 2
      vertex 30.475 21.6211 2
    endloop
  endfacet
  facet normal 0 0 1
    outer loop
      vertex 30.1 2.5 2
      vertex 30.475 21.6211 2
      vertex 30.2955 21.741 2
    endloop
  endfacet
  facet normal 0 0 1
    outer loop
      vertex 30.1 2.5 2
      vertex 30.2955 21.741 2
      vertex 30.1333 21.8833 2
    endloop
  endfacet
  facet normal 0 0 1
    outer loop
      vertex 30.1 2.5 2
      vertex 30.1333 21.8833 2
      vertex 30.1 21.9212 2
    endloop
  endfacet
  facet normal 0 0 1
    outer loop
      vertex 32.3045 21.741 2
      vertex 30.1 2.5 2
      vertex 32.6 0 2
    endloop
  endfacet
  facet normal -0 0 1
    outer loop
      vertex 2.5 2.5 2
      vertex 32.6 0 2
      vertex 30.1 2.5 2
    endloop
  endfacet
  facet normal -0 0 1
    outer loop
      vertex 2.30446 21.741 2
      vertex 2.5 2.5 2
      vertex 2.46673 21.8833 2
    endloop
  endfacet
  facet normal -0 0 1
    outer loop
      vertex 2.125 21.6211 2
      vertex 2.5 2.5 2
      vertex 2.30446 21.741 2
    endloop
  endfacet
  facet normal -0 0 1
    outer loop
      vertex 1.93143 21.5256 2
      vertex 2.5 2.5 2
      vertex 2.125 21.6211 2
    endloop
  endfacet
  facet normal -0 0 1
    outer loop
      vertex 1.72705 21.4562 2
      vertex 2.5 2.5 2
      vertex 1.93143 21.5256 2
    endloop
  endfacet
  facet normal -0 0 1
    outer loop
      vertex 1.51537 21.4141 2
      vertex 2.5 2.5 2
      vertex 1.72705 21.4562 2
    endloop
  endfacet
  facet normal -0 0 1
    outer loop
      vertex 1.3 21.4 2
      vertex 2.5 2.5 2
      vertex 1.51537 21.4141 2
    endloop
  endfacet
  facet normal 0 0 1
    outer loop
      vertex 1.08463 21.4141 2
      vertex 2.5 2.5 2
      vertex 1.3 21.4 2
    endloop
  endfacet
  facet normal 0 0 1
    outer loop
      vertex 0.872948 21.4562 2
      vertex 2.5 2.5 2
      vertex 1.08463 21.4141 2
    endloop
  endfacet
  facet normal 0 0 1
    outer loop
      vertex 0.668571 21.5256 2
      vertex 2.5 2.5 2
      vertex 0.872948 21.4562 2
    endloop
  endfacet
  facet normal 0 0 1
    outer loop
      vertex 0.474999 21.6211 2
      vertex 2.5 2.5 2
      vertex 0.668571 21.5256 2
    endloop
  endfacet
  facet normal 0 0 1
    outer loop
      vertex 0.295543 21.741 2
      vertex 2.5 2.5 2
      vertex 0.474999 21.6211 2
    endloop
  endfacet
  facet normal 0 0 1
    outer loop
      vertex 0 0 2
      vertex 0.295543 21.741 2
      vertex 0.133273 21.8833 2
    endloop
  endfacet
  facet normal 0 0 1
    outer loop
      vertex 0 0 2
      vertex 0.133273 21.8833 2
      vertex 0 22.0352 2
    endloop
  endfacet
  facet normal 0 0 1
    outer loop
      vertex 2.5 2.5 2
      vertex 0 0 2
      vertex 32.6 0 2
    endloop
  endfacet
  facet normal 0 0 1
    outer loop
      vertex 0.295543 21.741 2
      vertex 0 0 2
      vertex 2.5 2.5 2
    endloop
  endfacet
  facet normal 0 0 1
    outer loop
      vertex 32.6 46.1 2
      vertex 32.4667 24.2167 2
      vertex 32.6 24.0648 2
    endloop
  endfacet
  facet normal 0 0 1
    outer loop
      vertex 32.6 46.1 2
      vertex 32.3045 24.359 2
      vertex 32.4667 24.2167 2
    endloop
  endfacet
  facet normal -0 0 1
    outer loop
      vertex 30.1 43.6 2
      vertex 32.3045 24.359 2
      vertex 32.6 46.1 2
    endloop
  endfacet
  facet normal 0 0 1
    outer loop
      vertex 32.3045 24.359 2
      vertex 30.1 43.6 2
      vertex 32.125 24.4789 2
    endloop
  endfacet
  facet normal 0 0 1
    outer loop
      vertex 32.125 24.4789 2
      vertex 30.1 43.6 2
      vertex 31.9314 24.5744 2
    endloop
  endfacet
  facet normal 0 0 1
    outer loop
      vertex 31.9314 24.5744 2
      vertex 30.1 43.6 2
      vertex 31.7271 24.6438 2
    endloop
  endfacet
  facet normal 0 0 1
    outer loop
      vertex 31.7271 24.6438 2
      vertex 30.1 43.6 2
      vertex 31.5154 24.6859 2
    endloop
  endfacet
  facet normal 0 0 1
    outer loop
      vertex 31.5154 24.6859 2
      vertex 30.1 43.6 2
      vertex 31.3 24.7 2
    endloop
  endfacet
  facet normal 0 0 1
    outer loop
      vertex 31.3 24.7 2
      vertex 30.1 43.6 2
      vertex 31.0846 24.6859 2
    endloop
  endfacet
  facet normal 0 0 1
    outer loop
      vertex 31.0846 24.6859 2
      vertex 30.1 43.6 2
      vertex 30.8729 24.6438 2
    endloop
  endfacet
  facet normal 0 0 1
    outer loop
      vertex 30.8729 24.6438 2
      vertex 30.1 43.6 2
      vertex 30.6686 24.5744 2
    endloop
  endfacet
  facet normal 0 0 1
    outer loop
      vertex 30.6686 24.5744 2
      vertex 30.1 43.6 2
      vertex 30.475 24.4789 2
    endloop
  endfacet
  facet normal 0 0 1
    outer loop
      vertex 30.475 24.4789 2
      vertex 30.1 43.6 2
      vertex 30.2955 24.359 2
    endloop
  endfacet
  facet normal 0 0 1
    outer loop
      vertex 30.2955 24.359 2
      vertex 30.1 43.6 2
      vertex 30.1333 24.2167 2
    endloop
  endfacet
  facet normal 0 0 1
    outer loop
      vertex 32.6 46.1 2
      vertex 2.5 43.6 2
      vertex 30.1 43.6 2
    endloop
  endfacet
  facet normal 0 0 1
    outer loop
      vertex 2.5 43.6 2
      vertex 2.46673 24.2167 2
      vertex 2.5 24.1788 2
    endloop
  endfacet
  facet normal 0 0 1
    outer loop
      vertex 2.5 43.6 2
      vertex 2.30446 24.359 2
      vertex 2.46673 24.2167 2
    endloop
  endfacet
  facet normal 0 0 1
    outer loop
      vertex 2.5 43.6 2
      vertex 2.125 24.4789 2
      vertex 2.30446 24.359 2
    endloop
  endfacet
  facet normal 0 0 1
    outer loop
      vertex 2.5 43.6 2
      vertex 1.93143 24.5744 2
      vertex 2.125 24.4789 2
    endloop
  endfacet
  facet normal 0 0 1
    outer loop
      vertex 2.5 43.6 2
      vertex 1.72705 24.6438 2
      vertex 1.93143 24.5744 2
    endloop
  endfacet
  facet normal 0 0 1
    outer loop
      vertex 2.5 43.6 2
      vertex 1.51537 24.6859 2
      vertex 1.72705 24.6438 2
    endloop
  endfacet
  facet normal 0 0 1
    outer loop
      vertex 2.5 43.6 2
      vertex 1.3 24.7 2
      vertex 1.51537 24.6859 2
    endloop
  endfacet
  facet normal 0 0 1
    outer loop
      vertex 2.5 43.6 2
      vertex 1.08463 24.6859 2
      vertex 1.3 24.7 2
    endloop
  endfacet
  facet normal 0 0 1
    outer loop
      vertex 2.5 43.6 2
      vertex 0.872948 24.6438 2
      vertex 1.08463 24.6859 2
    endloop
  endfacet
  facet normal 0 0 1
    outer loop
      vertex 2.5 43.6 2
      vertex 0.668571 24.5744 2
      vertex 0.872948 24.6438 2
    endloop
  endfacet
  facet normal 0 0 1
    outer loop
      vertex 2.5 43.6 2
      vertex 0.474999 24.4789 2
      vertex 0.668571 24.5744 2
    endloop
  endfacet
  facet normal 0 0 1
    outer loop
      vertex 2.5 43.6 2
      vertex 0.295543 24.359 2
      vertex 0.474999 24.4789 2
    endloop
  endfacet
  facet normal 0 0 1
    outer loop
      vertex 0 46.1 2
      vertex 0.295543 24.359 2
      vertex 2.5 43.6 2
    endloop
  endfacet
  facet normal -0 0 1
    outer loop
      vertex 0 46.1 2
      vertex 2.5 43.6 2
      vertex 32.6 46.1 2
    endloop
  endfacet
  facet normal 0 0 1
    outer loop
      vertex 0.295543 24.359 2
      vertex 0 46.1 2
      vertex 0.133273 24.2167 2
    endloop
  endfacet
  facet normal 0 0 1
    outer loop
      vertex 0.133273 24.2167 2
      vertex 0 46.1 2
      vertex 0 24.0648 2
    endloop
  endfacet
  facet normal 0 0 1
    outer loop
      vertex 30.1333 24.2167 2
      vertex 30.1 43.6 2
      vertex 30.1 24.1788 2
    endloop
  endfacet
  facet normal 1 -0 0
    outer loop
      vertex 32.6 0 2
      vertex 32.6 22.0352 0
      vertex 32.6 22.0352 2
    endloop
  endfacet
  facet normal 1 0 0
    outer loop
      vertex 32.6 22.0352 0
      vertex 32.6 0 2
      vertex 32.6 0 0
    endloop
  endfacet
  facet normal 1 -0 0
    outer loop
      vertex 32.6 24.0648 2
      vertex 32.6 46.1 0
      vertex 32.6 46.1 2
    endloop
  endfacet
  facet normal 1 0 0
    outer loop
      vertex 32.6 46.1 0
      vertex 32.6 24.0648 2
      vertex 32.6 24.0648 0
    endloop
  endfacet
  facet normal 0 1 -0
    outer loop
      vertex 32.6 46.1 0
      vertex 0 46.1 2
      vertex 32.6 46.1 2
    endloop
  endfacet
  facet normal 0 1 0
    outer loop
      vertex 0 46.1 2
      vertex 32.6 46.1 0
      vertex 0 46.1 0
    endloop
  endfacet
  facet normal 0 0 -1
    outer loop
      vertex 32.6 0 0
      vertex 32.4667 21.8833 0
      vertex 32.6 22.0352 0
    endloop
  endfacet
  facet normal 0 0 -1
    outer loop
      vertex 32.6 0 0
      vertex 32.3045 21.741 0
      vertex 32.4667 21.8833 0
    endloop
  endfacet
  facet normal 0 0 -1
    outer loop
      vertex 32.6 0 0
      vertex 32.125 21.6211 0
      vertex 32.3045 21.741 0
    endloop
  endfacet
  facet normal 0 0 -1
    outer loop
      vertex 32.6 0 0
      vertex 31.9314 21.5256 0
      vertex 32.125 21.6211 0
    endloop
  endfacet
  facet normal 0 0 -1
    outer loop
      vertex 32.6 0 0
      vertex 31.7271 21.4562 0
      vertex 31.9314 21.5256 0
    endloop
  endfacet
  facet normal 0 0 -1
    outer loop
      vertex 32.6 0 0
      vertex 31.5154 21.4141 0
      vertex 31.7271 21.4562 0
    endloop
  endfacet
  facet normal 0 0 -1
    outer loop
      vertex 32.6 0 0
      vertex 31.3 21.4 0
      vertex 31.5154 21.4141 0
    endloop
  endfacet
  facet normal 0 0 -1
    outer loop
      vertex 32.6 0 0
      vertex 31.0846 21.4141 0
      vertex 31.3 21.4 0
    endloop
  endfacet
  facet normal 0 0 -1
    outer loop
      vertex 32.6 0 0
      vertex 30.8729 21.4562 0
      vertex 31.0846 21.4141 0
    endloop
  endfacet
  facet normal 0 0 -1
    outer loop
      vertex 32.6 0 0
      vertex 30.6686 21.5256 0
      vertex 30.8729 21.4562 0
    endloop
  endfacet
  facet normal 0 0 -1
    outer loop
      vertex 32.6 0 0
      vertex 30.475 21.6211 0
      vertex 30.6686 21.5256 0
    endloop
  endfacet
  facet normal 0 0 -1
    outer loop
      vertex 32.6 0 0
      vertex 30.2955 21.741 0
      vertex 30.475 21.6211 0
    endloop
  endfacet
  facet normal 0 0 -1
    outer loop
      vertex 32.6 0 0
      vertex 30.1333 21.8833 0
      vertex 30.2955 21.741 0
    endloop
  endfacet
  facet normal 0 0 -1
    outer loop
      vertex 2.46673 21.8833 0
      vertex 30.1333 21.8833 0
      vertex 32.6 0 0
    endloop
  endfacet
  facet normal 0 0 -1
    outer loop
      vertex 30.1333 21.8833 0
      vertex 2.46673 21.8833 0
      vertex 29.991 22.0455 0
    endloop
  endfacet
  facet normal 0 -0 -1
    outer loop
      vertex 2.60903 22.0455 0
      vertex 29.991 22.0455 0
      vertex 2.46673 21.8833 0
    endloop
  endfacet
  facet normal 0 0 -1
    outer loop
      vertex 29.991 22.0455 0
      vertex 2.60903 22.0455 0
      vertex 29.8711 22.225 0
    endloop
  endfacet
  facet normal 0 -0 -1
    outer loop
      vertex 2.72894 22.225 0
      vertex 29.8711 22.225 0
      vertex 2.60903 22.0455 0
    endloop
  endfacet
  facet normal 0 0 -1
    outer loop
      vertex 29.6641 22.8346 0
      vertex 2.95 23.05 0
      vertex 29.65 23.05 0
    endloop
  endfacet
  facet normal 0 -0 -1
    outer loop
      vertex 2.8244 22.4186 0
      vertex 29.7756 22.4186 0
      vertex 2.72894 22.225 0
    endloop
  endfacet
  facet normal 0 0 -1
    outer loop
      vertex 29.6641 22.8346 0
      vertex 2.93588 22.8346 0
      vertex 2.95 23.05 0
    endloop
  endfacet
  facet normal -0 0 -1
    outer loop
      vertex 29.6641 22.8346 0
      vertex 2.89378 22.6229 0
      vertex 2.93588 22.8346 0
    endloop
  endfacet
  facet normal 0 0 -1
    outer loop
      vertex 29.7062 22.6229 0
      vertex 2.89378 22.6229 0
      vertex 29.6641 22.8346 0
    endloop
  endfacet
  facet normal 0 -0 -1
    outer loop
      vertex 2.89378 22.6229 0
      vertex 29.7062 22.6229 0
      vertex 2.8244 22.4186 0
    endloop
  endfacet
  facet normal 0 0 -1
    outer loop
      vertex 29.7756 22.4186 0
      vertex 2.8244 22.4186 0
      vertex 29.7062 22.6229 0
    endloop
  endfacet
  facet normal 0 0 -1
    outer loop
      vertex 29.8711 22.225 0
      vertex 2.72894 22.225 0
      vertex 29.7756 22.4186 0
    endloop
  endfacet
  facet normal 0 0 -1
    outer loop
      vertex 0 0 0
      vertex 2.46673 21.8833 0
      vertex 32.6 0 0
    endloop
  endfacet
  facet normal 0 0 -1
    outer loop
      vertex 2.46673 21.8833 0
      vertex 0 0 0
      vertex 2.30446 21.741 0
    endloop
  endfacet
  facet normal 0 0 -1
    outer loop
      vertex 2.30446 21.741 0
      vertex 0 0 0
      vertex 2.125 21.6211 0
    endloop
  endfacet
  facet normal 0 0 -1
    outer loop
      vertex 2.125 21.6211 0
      vertex 0 0 0
      vertex 1.93143 21.5256 0
    endloop
  endfacet
  facet normal 0 0 -1
    outer loop
      vertex 1.93143 21.5256 0
      vertex 0 0 0
      vertex 1.72705 21.4562 0
    endloop
  endfacet
  facet normal 0 0 -1
    outer loop
      vertex 1.72705 21.4562 0
      vertex 0 0 0
      vertex 1.51537 21.4141 0
    endloop
  endfacet
  facet normal 0 0 -1
    outer loop
      vertex 1.51537 21.4141 0
      vertex 0 0 0
      vertex 1.3 21.4 0
    endloop
  endfacet
  facet normal -0 0 -1
    outer loop
      vertex 1.3 21.4 0
      vertex 0 0 0
      vertex 1.08463 21.4141 0
    endloop
  endfacet
  facet normal -0 0 -1
    outer loop
      vertex 1.08463 21.4141 0
      vertex 0 0 0
      vertex 0.872948 21.4562 0
    endloop
  endfacet
  facet normal -0 0 -1
    outer loop
      vertex 0.872948 21.4562 0
      vertex 0 0 0
      vertex 0.668571 21.5256 0
    endloop
  endfacet
  facet normal -0 0 -1
    outer loop
      vertex 0.668571 21.5256 0
      vertex 0 0 0
      vertex 0.474999 21.6211 0
    endloop
  endfacet
  facet normal -0 0 -1
    outer loop
      vertex 0.474999 21.6211 0
      vertex 0 0 0
      vertex 0.295543 21.741 0
    endloop
  endfacet
  facet normal 0 0 -1
    outer loop
      vertex 0 0 0
      vertex 0.133273 21.8833 0
      vertex 0.295543 21.741 0
    endloop
  endfacet
  facet normal -0 0 -1
    outer loop
      vertex 0.133273 21.8833 0
      vertex 0 0 0
      vertex 0 22.0352 0
    endloop
  endfacet
  facet normal 0 0 -1
    outer loop
      vertex 32.4667 24.2167 0
      vertex 32.6 46.1 0
      vertex 32.6 24.0648 0
    endloop
  endfacet
  facet normal 0 0 -1
    outer loop
      vertex 32.3045 24.359 0
      vertex 32.6 46.1 0
      vertex 32.4667 24.2167 0
    endloop
  endfacet
  facet normal 0 0 -1
    outer loop
      vertex 32.125 24.4789 0
      vertex 32.6 46.1 0
      vertex 32.3045 24.359 0
    endloop
  endfacet
  facet normal 0 0 -1
    outer loop
      vertex 31.9314 24.5744 0
      vertex 32.6 46.1 0
      vertex 32.125 24.4789 0
    endloop
  endfacet
  facet normal 0 0 -1
    outer loop
      vertex 31.7271 24.6438 0
      vertex 32.6 46.1 0
      vertex 31.9314 24.5744 0
    endloop
  endfacet
  facet normal 0 0 -1
    outer loop
      vertex 31.5154 24.6859 0
      vertex 32.6 46.1 0
      vertex 31.7271 24.6438 0
    endloop
  endfacet
  facet normal 0 0 -1
    outer loop
      vertex 31.3 24.7 0
      vertex 32.6 46.1 0
      vertex 31.5154 24.6859 0
    endloop
  endfacet
  facet normal 0 0 -1
    outer loop
      vertex 31.0846 24.6859 0
      vertex 32.6 46.1 0
      vertex 31.3 24.7 0
    endloop
  endfacet
  facet normal 0 0 -1
    outer loop
      vertex 30.8729 24.6438 0
      vertex 32.6 46.1 0
      vertex 31.0846 24.6859 0
    endloop
  endfacet
  facet normal 0 0 -1
    outer loop
      vertex 30.6686 24.5744 0
      vertex 32.6 46.1 0
      vertex 30.8729 24.6438 0
    endloop
  endfacet
  facet normal 0 0 -1
    outer loop
      vertex 30.475 24.4789 0
      vertex 32.6 46.1 0
      vertex 30.6686 24.5744 0
    endloop
  endfacet
  facet normal 0 0 -1
    outer loop
      vertex 30.2955 24.359 0
      vertex 32.6 46.1 0
      vertex 30.475 24.4789 0
    endloop
  endfacet
  facet normal 0 0 -1
    outer loop
      vertex 30.1333 24.2167 0
      vertex 32.6 46.1 0
      vertex 30.2955 24.359 0
    endloop
  endfacet
  facet normal 0 0 -1
    outer loop
      vertex 2.46673 24.2167 0
      vertex 30.1333 24.2167 0
      vertex 29.991 24.0545 0
    endloop
  endfacet
  facet normal 0 0 -1
    outer loop
      vertex 2.60903 24.0545 0
      vertex 29.991 24.0545 0
      vertex 29.8711 23.875 0
    endloop
  endfacet
  facet normal 0 0 -1
    outer loop
      vertex 2.72894 23.875 0
      vertex 29.8711 23.875 0
      vertex 29.7756 23.6814 0
    endloop
  endfacet
  facet normal 0 0 -1
    outer loop
      vertex 2.8244 23.6814 0
      vertex 29.7756 23.6814 0
      vertex 29.7062 23.4771 0
    endloop
  endfacet
  facet normal 0 0 -1
    outer loop
      vertex 2.89378 23.4771 0
      vertex 29.7062 23.4771 0
      vertex 29.6641 23.2654 0
    endloop
  endfacet
  facet normal 0 0 -1
    outer loop
      vertex 2.95 23.05 0
      vertex 29.6641 23.2654 0
      vertex 29.65 23.05 0
    endloop
  endfacet
  facet normal 0 0 -1
    outer loop
      vertex 2.93588 23.2654 0
      vertex 29.6641 23.2654 0
      vertex 2.95 23.05 0
    endloop
  endfacet
  facet normal 0 0 -1
    outer loop
      vertex 2.89378 23.4771 0
      vertex 29.6641 23.2654 0
      vertex 2.93588 23.2654 0
    endloop
  endfacet
  facet normal 0 0 -1
    outer loop
      vertex 29.7062 23.4771 0
      vertex 2.89378 23.4771 0
      vertex 2.8244 23.6814 0
    endloop
  endfacet
  facet normal 0 0 -1
    outer loop
      vertex 29.7756 23.6814 0
      vertex 2.8244 23.6814 0
      vertex 2.72894 23.875 0
    endloop
  endfacet
  facet normal 0 0 -1
    outer loop
      vertex 29.8711 23.875 0
      vertex 2.72894 23.875 0
      vertex 2.60903 24.0545 0
    endloop
  endfacet
  facet normal 0 0 -1
    outer loop
      vertex 29.991 24.0545 0
      vertex 2.60903 24.0545 0
      vertex 2.46673 24.2167 0
    endloop
  endfacet
  facet normal 0 0 -1
    outer loop
      vertex 30.1333 24.2167 0
      vertex 2.46673 24.2167 0
      vertex 32.6 46.1 0
    endloop
  endfacet
  facet normal 0 0 -1
    outer loop
      vertex 0 46.1 0
      vertex 2.46673 24.2167 0
      vertex 2.30446 24.359 0
    endloop
  endfacet
  facet normal 0 0 -1
    outer loop
      vertex 0 46.1 0
      vertex 2.30446 24.359 0
      vertex 2.125 24.4789 0
    endloop
  endfacet
  facet normal 0 0 -1
    outer loop
      vertex 0 46.1 0
      vertex 2.125 24.4789 0
      vertex 1.93143 24.5744 0
    endloop
  endfacet
  facet normal 0 0 -1
    outer loop
      vertex 0 46.1 0
      vertex 1.93143 24.5744 0
      vertex 1.72705 24.6438 0
    endloop
  endfacet
  facet normal 0 0 -1
    outer loop
      vertex 0 46.1 0
      vertex 1.72705 24.6438 0
      vertex 1.51537 24.6859 0
    endloop
  endfacet
  facet normal 0 0 -1
    outer loop
      vertex 0 46.1 0
      vertex 1.51537 24.6859 0
      vertex 1.3 24.7 0
    endloop
  endfacet
  facet normal 0 0 -1
    outer loop
      vertex 0 46.1 0
      vertex 1.3 24.7 0
      vertex 1.08463 24.6859 0
    endloop
  endfacet
  facet normal 0 0 -1
    outer loop
      vertex 0 46.1 0
      vertex 1.08463 24.6859 0
      vertex 0.872948 24.6438 0
    endloop
  endfacet
  facet normal 0 0 -1
    outer loop
      vertex 0 46.1 0
      vertex 0.872948 24.6438 0
      vertex 0.668571 24.5744 0
    endloop
  endfacet
  facet normal 0 0 -1
    outer loop
      vertex 0 46.1 0
      vertex 0.668571 24.5744 0
      vertex 0.474999 24.4789 0
    endloop
  endfacet
  facet normal 0 0 -1
    outer loop
      vertex 0 46.1 0
      vertex 0.474999 24.4789 0
      vertex 0.295543 24.359 0
    endloop
  endfacet
  facet normal 0 0 -1
    outer loop
      vertex 2.46673 24.2167 0
      vertex 0 46.1 0
      vertex 32.6 46.1 0
    endloop
  endfacet
  facet normal 0 0 -1
    outer loop
      vertex 0.133273 24.2167 0
      vertex 0 46.1 0
      vertex 0.295543 24.359 0
    endloop
  endfacet
  facet normal 0 0 -1
    outer loop
      vertex 0 46.1 0
      vertex 0.133273 24.2167 0
      vertex 0 24.0648 0
    endloop
  endfacet
  facet normal 0 -1 0
    outer loop
      vertex 0 0 0
      vertex 32.6 0 2
      vertex 0 0 2
    endloop
  endfacet
  facet normal 0 -1 -0
    outer loop
      vertex 32.6 0 2
      vertex 0 0 0
      vertex 32.6 0 0
    endloop
  endfacet
  facet normal -1 0 0
    outer loop
      vertex 2.5 2.5 2
      vertex 2.5 21.9212 4
      vertex 2.5 21.9212 2
    endloop
  endfacet
  facet normal -1 -0 0
    outer loop
      vertex 2.5 21.9212 4
      vertex 2.5 2.5 2
      vertex 2.5 2.5 4
    endloop
  endfacet
  facet normal -1 0 0
    outer loop
      vertex 2.5 24.1788 2
      vertex 2.5 43.6 4
      vertex 2.5 43.6 2
    endloop
  endfacet
  facet normal -1 -0 0
    outer loop
      vertex 2.5 43.6 4
      vertex 2.5 24.1788 2
      vertex 2.5 24.1788 4
    endloop
  endfacet
  facet normal 0 0 1
    outer loop
      vertex 30.1 43.6 4
      vertex 29.991 24.0545 4
      vertex 30.1 24.1788 4
    endloop
  endfacet
  facet normal 0 0 1
    outer loop
      vertex 2.60903 24.0545 4
      vertex 29.991 24.0545 4
      vertex 30.1 43.6 4
    endloop
  endfacet
  facet normal 0 0 1
    outer loop
      vertex 29.991 24.0545 4
      vertex 2.60903 24.0545 4
      vertex 29.8711 23.875 4
    endloop
  endfacet
  facet normal 0 -0 1
    outer loop
      vertex 2.72894 23.875 4
      vertex 29.8711 23.875 4
      vertex 2.60903 24.0545 4
    endloop
  endfacet
  facet normal 0 0 1
    outer loop
      vertex 29.8711 23.875 4
      vertex 2.72894 23.875 4
      vertex 29.7756 23.6814 4
    endloop
  endfacet
  facet normal 0 -0 1
    outer loop
      vertex 2.8244 23.6814 4
      vertex 29.7756 23.6814 4
      vertex 2.72894 23.875 4
    endloop
  endfacet
  facet normal 0 0 1
    outer loop
      vertex 29.7756 23.6814 4
      vertex 2.8244 23.6814 4
      vertex 29.7062 23.4771 4
    endloop
  endfacet
  facet normal 0 0 1
    outer loop
      vertex 29.65 23.05 4
      vertex 2.93588 23.2654 4
      vertex 2.95 23.05 4
    endloop
  endfacet
  facet normal 0 0 1
    outer loop
      vertex 29.6641 23.2654 4
      vertex 2.93588 23.2654 4
      vertex 29.65 23.05 4
    endloop
  endfacet
  facet normal 0 -0 1
    outer loop
      vertex 2.93588 23.2654 4
      vertex 29.6641 23.2654 4
      vertex 2.89378 23.4771 4
    endloop
  endfacet
  facet normal 0 0 1
    outer loop
      vertex 29.7062 23.4771 4
      vertex 2.89378 23.4771 4
      vertex 29.6641 23.2654 4
    endloop
  endfacet
  facet normal 0 -0 1
    outer loop
      vertex 2.89378 23.4771 4
      vertex 29.7062 23.4771 4
      vertex 2.8244 23.6814 4
    endloop
  endfacet
  facet normal -0 0 1
    outer loop
      vertex 2.5 43.6 4
      vertex 2.60903 24.0545 4
      vertex 30.1 43.6 4
    endloop
  endfacet
  facet normal 0 0 1
    outer loop
      vertex 2.60903 24.0545 4
      vertex 2.5 43.6 4
      vertex 2.5 24.1788 4
    endloop
  endfacet
  facet normal 0 0 1
    outer loop
      vertex 29.991 22.0455 4
      vertex 30.1 2.5 4
      vertex 30.1 21.9212 4
    endloop
  endfacet
  facet normal 0 0 1
    outer loop
      vertex 2.60903 22.0455 4
      vertex 29.991 22.0455 4
      vertex 29.8711 22.225 4
    endloop
  endfacet
  facet normal 0 0 1
    outer loop
      vertex 2.72894 22.225 4
      vertex 29.8711 22.225 4
      vertex 29.7756 22.4186 4
    endloop
  endfacet
  facet normal 0 0 1
    outer loop
      vertex 2.8244 22.4186 4
      vertex 29.7756 22.4186 4
      vertex 29.7062 22.6229 4
    endloop
  endfacet
  facet normal 0 0 1
    outer loop
      vertex 2.89378 22.6229 4
      vertex 29.7062 22.6229 4
      vertex 29.6641 22.8346 4
    endloop
  endfacet
  facet normal 0 0 1
    outer loop
      vertex 2.93588 22.8346 4
      vertex 29.6641 22.8346 4
      vertex 29.65 23.05 4
    endloop
  endfacet
  facet normal 0 0 1
    outer loop
      vertex 2.93588 22.8346 4
      vertex 29.65 23.05 4
      vertex 2.95 23.05 4
    endloop
  endfacet
  facet normal 0 0 1
    outer loop
      vertex 29.6641 22.8346 4
      vertex 2.93588 22.8346 4
      vertex 2.89378 22.6229 4
    endloop
  endfacet
  facet normal 0 0 1
    outer loop
      vertex 29.7062 22.6229 4
      vertex 2.89378 22.6229 4
      vertex 2.8244 22.4186 4
    endloop
  endfacet
  facet normal 0 0 1
    outer loop
      vertex 29.7756 22.4186 4
      vertex 2.8244 22.4186 4
      vertex 2.72894 22.225 4
    endloop
  endfacet
  facet normal 0 0 1
    outer loop
      vertex 29.8711 22.225 4
      vertex 2.72894 22.225 4
      vertex 2.60903 22.0455 4
    endloop
  endfacet
  facet normal 0 0 1
    outer loop
      vertex 29.991 22.0455 4
      vertex 2.60903 22.0455 4
      vertex 30.1 2.5 4
    endloop
  endfacet
  facet normal 0 0 1
    outer loop
      vertex 2.5 2.5 4
      vertex 2.60903 22.0455 4
      vertex 2.5 21.9212 4
    endloop
  endfacet
  facet normal 0 0 1
    outer loop
      vertex 2.60903 22.0455 4
      vertex 2.5 2.5 4
      vertex 30.1 2.5 4
    endloop
  endfacet
  facet normal 1 -0 0
    outer loop
      vertex 30.1 2.5 4
      vertex 30.1 21.9212 2
      vertex 30.1 21.9212 4
    endloop
  endfacet
  facet normal 1 0 0
    outer loop
      vertex 30.1 21.9212 2
      vertex 30.1 2.5 4
      vertex 30.1 2.5 2
    endloop
  endfacet
  facet normal 1 -0 0
    outer loop
      vertex 30.1 24.1788 4
      vertex 30.1 43.6 2
      vertex 30.1 43.6 4
    endloop
  endfacet
  facet normal 1 0 0
    outer loop
      vertex 30.1 43.6 2
      vertex 30.1 24.1788 4
      vertex 30.1 24.1788 2
    endloop
  endfacet
  facet normal 0 1 -0
    outer loop
      vertex 30.1 43.6 2
      vertex 2.5 43.6 4
      vertex 30.1 43.6 4
    endloop
  endfacet
  facet normal 0 1 0
    outer loop
      vertex 2.5 43.6 4
      vertex 30.1 43.6 2
      vertex 2.5 43.6 2
    endloop
  endfacet
  facet normal 0 -1 0
    outer loop
      vertex 2.5 2.5 2
      vertex 30.1 2.5 4
      vertex 2.5 2.5 4
    endloop
  endfacet
  facet normal 0 -1 -0
    outer loop
      vertex 30.1 2.5 4
      vertex 2.5 2.5 2
      vertex 30.1 2.5 2
    endloop
  endfacet
  facet normal -0.555534 -0.831494 0
    outer loop
      vertex 2.125 24.4789 0
      vertex 2.30446 24.359 2
      vertex 2.125 24.4789 2
    endloop
  endfacet
  facet normal -0.555534 -0.831494 -0
    outer loop
      vertex 2.30446 24.359 2
      vertex 2.125 24.4789 0
      vertex 2.30446 24.359 0
    endloop
  endfacet
  facet normal 0.321536 0.946897 -0
    outer loop
      vertex 0.872948 21.4562 0
      vertex 0.668571 21.5256 2
      vertex 0.872948 21.4562 2
    endloop
  endfacet
  facet normal 0.321536 0.946897 0
    outer loop
      vertex 0.668571 21.5256 2
      vertex 0.872948 21.4562 0
      vertex 0.668571 21.5256 0
    endloop
  endfacet
  facet normal 0.321536 -0.946897 0
    outer loop
      vertex 0.668571 24.5744 0
      vertex 0.872948 24.6438 2
      vertex 0.668571 24.5744 2
    endloop
  endfacet
  facet normal 0.321536 -0.946897 0
    outer loop
      vertex 0.872948 24.6438 2
      vertex 0.668571 24.5744 0
      vertex 0.872948 24.6438 0
    endloop
  endfacet
  facet normal -0.751774 0.65942 0
    outer loop
      vertex 2.60903 22.0455 0
      vertex 2.5 21.9212 2
      vertex 2.60903 22.0455 4
    endloop
  endfacet
  facet normal -0.751715 0.659488 7.4708e-06
    outer loop
      vertex 2.46673 21.8833 0
      vertex 2.5 21.9212 2
      vertex 2.60903 22.0455 0
    endloop
  endfacet
  facet normal -0.751519 0.659711 0
    outer loop
      vertex 2.5 21.9212 2
      vertex 2.46673 21.8833 0
      vertex 2.46673 21.8833 2
    endloop
  endfacet
  facet normal -0.751774 0.65942 0
    outer loop
      vertex 2.60903 22.0455 4
      vertex 2.5 21.9212 2
      vertex 2.5 21.9212 4
    endloop
  endfacet
  facet normal -0.896897 -0.44224 0
    outer loop
      vertex 2.8244 23.6814 0
      vertex 2.72894 23.875 4
      vertex 2.72894 23.875 0
    endloop
  endfacet
  facet normal -0.896897 -0.44224 0
    outer loop
      vertex 2.72894 23.875 4
      vertex 2.8244 23.6814 0
      vertex 2.8244 23.6814 4
    endloop
  endfacet
  facet normal -0.83153 -0.55548 0
    outer loop
      vertex 2.72894 23.875 0
      vertex 2.60903 24.0545 4
      vertex 2.60903 24.0545 0
    endloop
  endfacet
  facet normal -0.83153 -0.55548 0
    outer loop
      vertex 2.60903 24.0545 4
      vertex 2.72894 23.875 0
      vertex 2.72894 23.875 4
    endloop
  endfacet
  facet normal -0.442445 -0.896796 0
    outer loop
      vertex 1.93143 24.5744 0
      vertex 2.125 24.4789 2
      vertex 1.93143 24.5744 2
    endloop
  endfacet
  facet normal -0.442445 -0.896796 -0
    outer loop
      vertex 2.125 24.4789 2
      vertex 1.93143 24.5744 0
      vertex 2.125 24.4789 0
    endloop
  endfacet
  facet normal -0.0653289 -0.997864 0
    outer loop
      vertex 1.3 24.7 0
      vertex 1.51537 24.6859 2
      vertex 1.3 24.7 2
    endloop
  endfacet
  facet normal -0.0653289 -0.997864 -0
    outer loop
      vertex 1.51537 24.6859 2
      vertex 1.3 24.7 0
      vertex 1.51537 24.6859 0
    endloop
  endfacet
  facet normal 0.751692 -0.659514 0
    outer loop
      vertex 0 24.0648 2
      vertex 0.133273 24.2167 0
      vertex 0.133273 24.2167 2
    endloop
  endfacet
  facet normal 0.751692 -0.659514 0
    outer loop
      vertex 0.133273 24.2167 0
      vertex 0 24.0648 2
      vertex 0 24.0648 0
    endloop
  endfacet
  facet normal 0.0653289 -0.997864 0
    outer loop
      vertex 1.08463 24.6859 0
      vertex 1.3 24.7 2
      vertex 1.08463 24.6859 2
    endloop
  endfacet
  facet normal 0.0653289 -0.997864 0
    outer loop
      vertex 1.3 24.7 2
      vertex 1.08463 24.6859 0
      vertex 1.3 24.7 0
    endloop
  endfacet
  facet normal 0.659328 -0.751856 0
    outer loop
      vertex 0.133273 24.2167 0
      vertex 0.295543 24.359 2
      vertex 0.133273 24.2167 2
    endloop
  endfacet
  facet normal 0.659328 -0.751856 0
    outer loop
      vertex 0.295543 24.359 2
      vertex 0.133273 24.2167 0
      vertex 0.295543 24.359 0
    endloop
  endfacet
  facet normal -0.997858 -0.0654121 0
    outer loop
      vertex 2.95 23.05 0
      vertex 2.93588 23.2654 4
      vertex 2.93588 23.2654 0
    endloop
  endfacet
  facet normal -0.997858 -0.0654121 0
    outer loop
      vertex 2.93588 23.2654 4
      vertex 2.95 23.05 0
      vertex 2.95 23.05 4
    endloop
  endfacet
  facet normal -0.83153 0.55548 0
    outer loop
      vertex 2.60903 22.0455 0
      vertex 2.72894 22.225 4
      vertex 2.72894 22.225 0
    endloop
  endfacet
  facet normal -0.83153 0.55548 0
    outer loop
      vertex 2.72894 22.225 4
      vertex 2.60903 22.0455 0
      vertex 2.60903 22.0455 4
    endloop
  endfacet
  facet normal -0.946889 0.321562 0
    outer loop
      vertex 2.8244 22.4186 0
      vertex 2.89378 22.6229 4
      vertex 2.89378 22.6229 0
    endloop
  endfacet
  facet normal -0.946889 0.321562 0
    outer loop
      vertex 2.89378 22.6229 4
      vertex 2.8244 22.4186 0
      vertex 2.8244 22.4186 4
    endloop
  endfacet
  facet normal 0.195063 0.980791 -0
    outer loop
      vertex 1.08463 21.4141 0
      vertex 0.872948 21.4562 2
      vertex 1.08463 21.4141 2
    endloop
  endfacet
  facet normal 0.195063 0.980791 0
    outer loop
      vertex 0.872948 21.4562 2
      vertex 1.08463 21.4141 0
      vertex 0.872948 21.4562 0
    endloop
  endfacet
  facet normal 0.659328 0.751856 -0
    outer loop
      vertex 0.295543 21.741 0
      vertex 0.133273 21.8833 2
      vertex 0.295543 21.741 2
    endloop
  endfacet
  facet normal 0.659328 0.751856 0
    outer loop
      vertex 0.133273 21.8833 2
      vertex 0.295543 21.741 0
      vertex 0.133273 21.8833 0
    endloop
  endfacet
  facet normal -0.980794 -0.195047 0
    outer loop
      vertex 2.93588 23.2654 0
      vertex 2.89378 23.4771 4
      vertex 2.89378 23.4771 0
    endloop
  endfacet
  facet normal -0.980794 -0.195047 0
    outer loop
      vertex 2.89378 23.4771 4
      vertex 2.93588 23.2654 0
      vertex 2.93588 23.2654 4
    endloop
  endfacet
  facet normal -0.946889 -0.321562 0
    outer loop
      vertex 2.89378 23.4771 0
      vertex 2.8244 23.6814 4
      vertex 2.8244 23.6814 0
    endloop
  endfacet
  facet normal -0.946889 -0.321562 0
    outer loop
      vertex 2.8244 23.6814 4
      vertex 2.89378 23.4771 0
      vertex 2.89378 23.4771 4
    endloop
  endfacet
  facet normal -0.751519 -0.659711 0
    outer loop
      vertex 2.46673 24.2167 0
      vertex 2.5 24.1788 2
      vertex 2.46673 24.2167 2
    endloop
  endfacet
  facet normal -0.751715 -0.659488 7.4708e-06
    outer loop
      vertex 2.60903 24.0545 0
      vertex 2.5 24.1788 2
      vertex 2.46673 24.2167 0
    endloop
  endfacet
  facet normal -0.751774 -0.65942 -0
    outer loop
      vertex 2.60903 24.0545 4
      vertex 2.5 24.1788 2
      vertex 2.60903 24.0545 0
    endloop
  endfacet
  facet normal -0.751774 -0.65942 0
    outer loop
      vertex 2.5 24.1788 2
      vertex 2.60903 24.0545 4
      vertex 2.5 24.1788 4
    endloop
  endfacet
  facet normal -0.659328 -0.751856 0
    outer loop
      vertex 2.30446 24.359 0
      vertex 2.46673 24.2167 2
      vertex 2.30446 24.359 2
    endloop
  endfacet
  facet normal -0.659328 -0.751856 -0
    outer loop
      vertex 2.46673 24.2167 2
      vertex 2.30446 24.359 0
      vertex 2.46673 24.2167 0
    endloop
  endfacet
  facet normal -0.321532 -0.946899 0
    outer loop
      vertex 1.72705 24.6438 0
      vertex 1.93143 24.5744 2
      vertex 1.72705 24.6438 2
    endloop
  endfacet
  facet normal -0.321532 -0.946899 -0
    outer loop
      vertex 1.93143 24.5744 2
      vertex 1.72705 24.6438 0
      vertex 1.93143 24.5744 0
    endloop
  endfacet
  facet normal -0.195065 -0.98079 0
    outer loop
      vertex 1.51537 24.6859 0
      vertex 1.72705 24.6438 2
      vertex 1.51537 24.6859 2
    endloop
  endfacet
  facet normal -0.195065 -0.98079 -0
    outer loop
      vertex 1.72705 24.6438 2
      vertex 1.51537 24.6859 0
      vertex 1.72705 24.6438 0
    endloop
  endfacet
  facet normal 0.195063 -0.980791 0
    outer loop
      vertex 0.872948 24.6438 0
      vertex 1.08463 24.6859 2
      vertex 0.872948 24.6438 2
    endloop
  endfacet
  facet normal 0.195063 -0.980791 0
    outer loop
      vertex 1.08463 24.6859 2
      vertex 0.872948 24.6438 0
      vertex 1.08463 24.6859 0
    endloop
  endfacet
  facet normal 0.555542 -0.831488 0
    outer loop
      vertex 0.295543 24.359 0
      vertex 0.474999 24.4789 2
      vertex 0.295543 24.359 2
    endloop
  endfacet
  facet normal 0.555542 -0.831488 0
    outer loop
      vertex 0.474999 24.4789 2
      vertex 0.295543 24.359 0
      vertex 0.474999 24.4789 0
    endloop
  endfacet
  facet normal 0.442441 -0.896798 0
    outer loop
      vertex 0.474999 24.4789 0
      vertex 0.668571 24.5744 2
      vertex 0.474999 24.4789 2
    endloop
  endfacet
  facet normal 0.442441 -0.896798 0
    outer loop
      vertex 0.668571 24.5744 2
      vertex 0.474999 24.4789 0
      vertex 0.668571 24.5744 0
    endloop
  endfacet
  facet normal -0.997858 0.0654121 0
    outer loop
      vertex 2.93588 22.8346 0
      vertex 2.95 23.05 4
      vertex 2.95 23.05 0
    endloop
  endfacet
  facet normal -0.997858 0.0654121 0
    outer loop
      vertex 2.95 23.05 4
      vertex 2.93588 22.8346 0
      vertex 2.93588 22.8346 4
    endloop
  endfacet
  facet normal -0.0653289 0.997864 0
    outer loop
      vertex 1.51537 21.4141 0
      vertex 1.3 21.4 2
      vertex 1.51537 21.4141 2
    endloop
  endfacet
  facet normal -0.0653289 0.997864 0
    outer loop
      vertex 1.3 21.4 2
      vertex 1.51537 21.4141 0
      vertex 1.3 21.4 0
    endloop
  endfacet
  facet normal -0.195065 0.98079 0
    outer loop
      vertex 1.72705 21.4562 0
      vertex 1.51537 21.4141 2
      vertex 1.72705 21.4562 2
    endloop
  endfacet
  facet normal -0.195065 0.98079 0
    outer loop
      vertex 1.51537 21.4141 2
      vertex 1.72705 21.4562 0
      vertex 1.51537 21.4141 0
    endloop
  endfacet
  facet normal -0.321532 0.946899 0
    outer loop
      vertex 1.93143 21.5256 0
      vertex 1.72705 21.4562 2
      vertex 1.93143 21.5256 2
    endloop
  endfacet
  facet normal -0.321532 0.946899 0
    outer loop
      vertex 1.72705 21.4562 2
      vertex 1.93143 21.5256 0
      vertex 1.72705 21.4562 0
    endloop
  endfacet
  facet normal -0.555534 0.831494 0
    outer loop
      vertex 2.30446 21.741 0
      vertex 2.125 21.6211 2
      vertex 2.30446 21.741 2
    endloop
  endfacet
  facet normal -0.555534 0.831494 0
    outer loop
      vertex 2.125 21.6211 2
      vertex 2.30446 21.741 0
      vertex 2.125 21.6211 0
    endloop
  endfacet
  facet normal 0.0653289 0.997864 -0
    outer loop
      vertex 1.3 21.4 0
      vertex 1.08463 21.4141 2
      vertex 1.3 21.4 2
    endloop
  endfacet
  facet normal 0.0653289 0.997864 0
    outer loop
      vertex 1.08463 21.4141 2
      vertex 1.3 21.4 0
      vertex 1.08463 21.4141 0
    endloop
  endfacet
  facet normal 0.442441 0.896798 -0
    outer loop
      vertex 0.668571 21.5256 0
      vertex 0.474999 21.6211 2
      vertex 0.668571 21.5256 2
    endloop
  endfacet
  facet normal 0.442441 0.896798 0
    outer loop
      vertex 0.474999 21.6211 2
      vertex 0.668571 21.5256 0
      vertex 0.474999 21.6211 0
    endloop
  endfacet
  facet normal -0.980794 0.195047 0
    outer loop
      vertex 2.89378 22.6229 0
      vertex 2.93588 22.8346 4
      vertex 2.93588 22.8346 0
    endloop
  endfacet
  facet normal -0.980794 0.195047 0
    outer loop
      vertex 2.93588 22.8346 4
      vertex 2.89378 22.6229 0
      vertex 2.89378 22.6229 4
    endloop
  endfacet
  facet normal -0.896897 0.44224 0
    outer loop
      vertex 2.72894 22.225 0
      vertex 2.8244 22.4186 4
      vertex 2.8244 22.4186 0
    endloop
  endfacet
  facet normal -0.896897 0.44224 0
    outer loop
      vertex 2.8244 22.4186 4
      vertex 2.72894 22.225 0
      vertex 2.72894 22.225 4
    endloop
  endfacet
  facet normal -0.442445 0.896796 0
    outer loop
      vertex 2.125 21.6211 0
      vertex 1.93143 21.5256 2
      vertex 2.125 21.6211 2
    endloop
  endfacet
  facet normal -0.442445 0.896796 0
    outer loop
      vertex 1.93143 21.5256 2
      vertex 2.125 21.6211 0
      vertex 1.93143 21.5256 0
    endloop
  endfacet
  facet normal -0.659328 0.751856 0
    outer loop
      vertex 2.46673 21.8833 0
      vertex 2.30446 21.741 2
      vertex 2.46673 21.8833 2
    endloop
  endfacet
  facet normal -0.659328 0.751856 0
    outer loop
      vertex 2.30446 21.741 2
      vertex 2.46673 21.8833 0
      vertex 2.30446 21.741 0
    endloop
  endfacet
  facet normal 0.555542 0.831488 -0
    outer loop
      vertex 0.474999 21.6211 0
      vertex 0.295543 21.741 2
      vertex 0.474999 21.6211 2
    endloop
  endfacet
  facet normal 0.555542 0.831488 0
    outer loop
      vertex 0.295543 21.741 2
      vertex 0.474999 21.6211 0
      vertex 0.295543 21.741 0
    endloop
  endfacet
  facet normal 0.751692 0.659514 0
    outer loop
      vertex 0.133273 21.8833 2
      vertex 0 22.0352 0
      vertex 0 22.0352 2
    endloop
  endfacet
  facet normal 0.751692 0.659514 0
    outer loop
      vertex 0 22.0352 0
      vertex 0.133273 21.8833 2
      vertex 0.133273 21.8833 0
    endloop
  endfacet
  facet normal -0.555448 -0.831551 0
    outer loop
      vertex 32.125 24.4789 0
      vertex 32.3045 24.359 2
      vertex 32.125 24.4789 2
    endloop
  endfacet
  facet normal -0.555448 -0.831551 -0
    outer loop
      vertex 32.3045 24.359 2
      vertex 32.125 24.4789 0
      vertex 32.3045 24.359 0
    endloop
  endfacet
  facet normal 0.94686 -0.321645 0
    outer loop
      vertex 29.7062 23.4771 4
      vertex 29.7756 23.6814 0
      vertex 29.7756 23.6814 4
    endloop
  endfacet
  facet normal 0.94686 -0.321645 0
    outer loop
      vertex 29.7756 23.6814 0
      vertex 29.7062 23.4771 4
      vertex 29.7062 23.4771 0
    endloop
  endfacet
  facet normal 0.321645 0.94686 -0
    outer loop
      vertex 30.8729 21.4562 0
      vertex 30.6686 21.5256 2
      vertex 30.8729 21.4562 2
    endloop
  endfacet
  facet normal 0.321645 0.94686 0
    outer loop
      vertex 30.6686 21.5256 2
      vertex 30.8729 21.4562 0
      vertex 30.6686 21.5256 0
    endloop
  endfacet
  facet normal 0.321645 -0.94686 0
    outer loop
      vertex 30.6686 24.5744 0
      vertex 30.8729 24.6438 2
      vertex 30.6686 24.5744 2
    endloop
  endfacet
  facet normal 0.321645 -0.94686 0
    outer loop
      vertex 30.8729 24.6438 2
      vertex 30.6686 24.5744 0
      vertex 30.8729 24.6438 0
    endloop
  endfacet
  facet normal 0.896823 -0.442389 0
    outer loop
      vertex 29.7756 23.6814 4
      vertex 29.8711 23.875 0
      vertex 29.8711 23.875 4
    endloop
  endfacet
  facet normal 0.896823 -0.442389 0
    outer loop
      vertex 29.8711 23.875 0
      vertex 29.7756 23.6814 4
      vertex 29.7756 23.6814 0
    endloop
  endfacet
  facet normal -0.442389 -0.896823 0
    outer loop
      vertex 31.9314 24.5744 0
      vertex 32.125 24.4789 2
      vertex 31.9314 24.5744 2
    endloop
  endfacet
  facet normal -0.442389 -0.896823 -0
    outer loop
      vertex 32.125 24.4789 2
      vertex 31.9314 24.5744 0
      vertex 32.125 24.4789 0
    endloop
  endfacet
  facet normal -0.0653198 -0.997864 0
    outer loop
      vertex 31.3 24.7 0
      vertex 31.5154 24.6859 2
      vertex 31.3 24.7 2
    endloop
  endfacet
  facet normal -0.0653198 -0.997864 -0
    outer loop
      vertex 31.5154 24.6859 2
      vertex 31.3 24.7 0
      vertex 31.5154 24.6859 0
    endloop
  endfacet
  facet normal 0.980794 -0.195047 0
    outer loop
      vertex 29.6641 23.2654 4
      vertex 29.7062 23.4771 0
      vertex 29.7062 23.4771 4
    endloop
  endfacet
  facet normal 0.980794 -0.195047 0
    outer loop
      vertex 29.7062 23.4771 0
      vertex 29.6641 23.2654 4
      vertex 29.6641 23.2654 0
    endloop
  endfacet
  facet normal 0.751864 -0.659318 0
    outer loop
      vertex 30.1 24.1788 4
      vertex 29.991 24.0545 4
      vertex 30.1 24.1788 2
    endloop
  endfacet
  facet normal 0.751224 -0.660047 0
    outer loop
      vertex 30.1 24.1788 2
      vertex 30.1333 24.2167 0
      vertex 30.1333 24.2167 2
    endloop
  endfacet
  facet normal 0.751864 -0.659318 0
    outer loop
      vertex 29.991 24.0545 0
      vertex 30.1 24.1788 2
      vertex 29.991 24.0545 4
    endloop
  endfacet
  facet normal 0.751715 -0.659488 1.87465e-05
    outer loop
      vertex 30.1 24.1788 2
      vertex 29.991 24.0545 0
      vertex 30.1333 24.2167 0
    endloop
  endfacet
  facet normal 0.0653198 -0.997864 0
    outer loop
      vertex 31.0846 24.6859 0
      vertex 31.3 24.7 2
      vertex 31.0846 24.6859 2
    endloop
  endfacet
  facet normal 0.0653198 -0.997864 0
    outer loop
      vertex 31.3 24.7 2
      vertex 31.0846 24.6859 0
      vertex 31.3 24.7 0
    endloop
  endfacet
  facet normal 0.659488 -0.751715 0
    outer loop
      vertex 30.1333 24.2167 0
      vertex 30.2955 24.359 2
      vertex 30.1333 24.2167 2
    endloop
  endfacet
  facet normal 0.659488 -0.751715 0
    outer loop
      vertex 30.2955 24.359 2
      vertex 30.1333 24.2167 0
      vertex 30.2955 24.359 0
    endloop
  endfacet
  facet normal 0.195047 0.980794 -0
    outer loop
      vertex 31.0846 21.4141 0
      vertex 30.8729 21.4562 2
      vertex 31.0846 21.4141 2
    endloop
  endfacet
  facet normal 0.195047 0.980794 0
    outer loop
      vertex 30.8729 21.4562 2
      vertex 31.0846 21.4141 0
      vertex 30.8729 21.4562 0
    endloop
  endfacet
  facet normal 0.659488 0.751715 -0
    outer loop
      vertex 30.2955 21.741 0
      vertex 30.1333 21.8833 2
      vertex 30.2955 21.741 2
    endloop
  endfacet
  facet normal 0.659488 0.751715 0
    outer loop
      vertex 30.1333 21.8833 2
      vertex 30.2955 21.741 0
      vertex 30.1333 21.8833 0
    endloop
  endfacet
  facet normal 0.896823 0.442389 0
    outer loop
      vertex 29.8711 22.225 4
      vertex 29.7756 22.4186 0
      vertex 29.7756 22.4186 4
    endloop
  endfacet
  facet normal 0.896823 0.442389 0
    outer loop
      vertex 29.7756 22.4186 0
      vertex 29.8711 22.225 4
      vertex 29.8711 22.225 0
    endloop
  endfacet
  facet normal -0.751626 -0.65959 0
    outer loop
      vertex 32.6 24.0648 0
      vertex 32.4667 24.2167 2
      vertex 32.4667 24.2167 0
    endloop
  endfacet
  facet normal -0.751626 -0.65959 0
    outer loop
      vertex 32.4667 24.2167 2
      vertex 32.6 24.0648 0
      vertex 32.6 24.0648 2
    endloop
  endfacet
  facet normal -0.659488 -0.751715 0
    outer loop
      vertex 32.3045 24.359 0
      vertex 32.4667 24.2167 2
      vertex 32.3045 24.359 2
    endloop
  endfacet
  facet normal -0.659488 -0.751715 -0
    outer loop
      vertex 32.4667 24.2167 2
      vertex 32.3045 24.359 0
      vertex 32.4667 24.2167 0
    endloop
  endfacet
  facet normal -0.321645 -0.94686 0
    outer loop
      vertex 31.7271 24.6438 0
      vertex 31.9314 24.5744 2
      vertex 31.7271 24.6438 2
    endloop
  endfacet
  facet normal -0.321645 -0.94686 -0
    outer loop
      vertex 31.9314 24.5744 2
      vertex 31.7271 24.6438 0
      vertex 31.9314 24.5744 0
    endloop
  endfacet
  facet normal -0.195047 -0.980794 0
    outer loop
      vertex 31.5154 24.6859 0
      vertex 31.7271 24.6438 2
      vertex 31.5154 24.6859 2
    endloop
  endfacet
  facet normal -0.195047 -0.980794 -0
    outer loop
      vertex 31.7271 24.6438 2
      vertex 31.5154 24.6859 0
      vertex 31.7271 24.6438 0
    endloop
  endfacet
  facet normal 0.997864 -0.0653198 0
    outer loop
      vertex 29.65 23.05 4
      vertex 29.6641 23.2654 0
      vertex 29.6641 23.2654 4
    endloop
  endfacet
  facet normal 0.997864 -0.0653198 0
    outer loop
      vertex 29.6641 23.2654 0
      vertex 29.65 23.05 4
      vertex 29.65 23.05 0
    endloop
  endfacet
  facet normal 0.831551 -0.555448 0
    outer loop
      vertex 29.8711 23.875 4
      vertex 29.991 24.0545 0
      vertex 29.991 24.0545 4
    endloop
  endfacet
  facet normal 0.831551 -0.555448 0
    outer loop
      vertex 29.991 24.0545 0
      vertex 29.8711 23.875 4
      vertex 29.8711 23.875 0
    endloop
  endfacet
  facet normal 0.195047 -0.980794 0
    outer loop
      vertex 30.8729 24.6438 0
      vertex 31.0846 24.6859 2
      vertex 30.8729 24.6438 2
    endloop
  endfacet
  facet normal 0.195047 -0.980794 0
    outer loop
      vertex 31.0846 24.6859 2
      vertex 30.8729 24.6438 0
      vertex 31.0846 24.6859 0
    endloop
  endfacet
  facet normal 0.555448 -0.831551 0
    outer loop
      vertex 30.2955 24.359 0
      vertex 30.475 24.4789 2
      vertex 30.2955 24.359 2
    endloop
  endfacet
  facet normal 0.555448 -0.831551 0
    outer loop
      vertex 30.475 24.4789 2
      vertex 30.2955 24.359 0
      vertex 30.475 24.4789 0
    endloop
  endfacet
  facet normal 0.442389 -0.896823 0
    outer loop
      vertex 30.475 24.4789 0
      vertex 30.6686 24.5744 2
      vertex 30.475 24.4789 2
    endloop
  endfacet
  facet normal 0.442389 -0.896823 0
    outer loop
      vertex 30.6686 24.5744 2
      vertex 30.475 24.4789 0
      vertex 30.6686 24.5744 0
    endloop
  endfacet
  facet normal -0.0653198 0.997864 0
    outer loop
      vertex 31.5154 21.4141 0
      vertex 31.3 21.4 2
      vertex 31.5154 21.4141 2
    endloop
  endfacet
  facet normal -0.0653198 0.997864 0
    outer loop
      vertex 31.3 21.4 2
      vertex 31.5154 21.4141 0
      vertex 31.3 21.4 0
    endloop
  endfacet
  facet normal -0.321645 0.94686 0
    outer loop
      vertex 31.9314 21.5256 0
      vertex 31.7271 21.4562 2
      vertex 31.9314 21.5256 2
    endloop
  endfacet
  facet normal -0.321645 0.94686 0
    outer loop
      vertex 31.7271 21.4562 2
      vertex 31.9314 21.5256 0
      vertex 31.7271 21.4562 0
    endloop
  endfacet
  facet normal -0.751626 0.65959 0
    outer loop
      vertex 32.4667 21.8833 0
      vertex 32.6 22.0352 2
      vertex 32.6 22.0352 0
    endloop
  endfacet
  facet normal -0.751626 0.65959 0
    outer loop
      vertex 32.6 22.0352 2
      vertex 32.4667 21.8833 0
      vertex 32.4667 21.8833 2
    endloop
  endfacet
  facet normal -0.555448 0.831551 0
    outer loop
      vertex 32.3045 21.741 0
      vertex 32.125 21.6211 2
      vertex 32.3045 21.741 2
    endloop
  endfacet
  facet normal -0.555448 0.831551 0
    outer loop
      vertex 32.125 21.6211 2
      vertex 32.3045 21.741 0
      vertex 32.125 21.6211 0
    endloop
  endfacet
  facet normal 0.442389 0.896823 -0
    outer loop
      vertex 30.6686 21.5256 0
      vertex 30.475 21.6211 2
      vertex 30.6686 21.5256 2
    endloop
  endfacet
  facet normal 0.442389 0.896823 0
    outer loop
      vertex 30.475 21.6211 2
      vertex 30.6686 21.5256 0
      vertex 30.475 21.6211 0
    endloop
  endfacet
  facet normal 0.94686 0.321645 0
    outer loop
      vertex 29.7756 22.4186 4
      vertex 29.7062 22.6229 0
      vertex 29.7062 22.6229 4
    endloop
  endfacet
  facet normal 0.94686 0.321645 0
    outer loop
      vertex 29.7062 22.6229 0
      vertex 29.7756 22.4186 4
      vertex 29.7756 22.4186 0
    endloop
  endfacet
  facet normal 0.997864 0.0653198 0
    outer loop
      vertex 29.6641 22.8346 4
      vertex 29.65 23.05 0
      vertex 29.65 23.05 4
    endloop
  endfacet
  facet normal 0.997864 0.0653198 0
    outer loop
      vertex 29.65 23.05 0
      vertex 29.6641 22.8346 4
      vertex 29.6641 22.8346 0
    endloop
  endfacet
  facet normal 0.831551 0.555448 0
    outer loop
      vertex 29.991 22.0455 4
      vertex 29.8711 22.225 0
      vertex 29.8711 22.225 4
    endloop
  endfacet
  facet normal 0.831551 0.555448 0
    outer loop
      vertex 29.8711 22.225 0
      vertex 29.991 22.0455 4
      vertex 29.991 22.0455 0
    endloop
  endfacet
  facet normal -0.195047 0.980794 0
    outer loop
      vertex 31.7271 21.4562 0
      vertex 31.5154 21.4141 2
      vertex 31.7271 21.4562 2
    endloop
  endfacet
  facet normal -0.195047 0.980794 0
    outer loop
      vertex 31.5154 21.4141 2
      vertex 31.7271 21.4562 0
      vertex 31.5154 21.4141 0
    endloop
  endfacet
  facet normal -0.442389 0.896823 0
    outer loop
      vertex 32.125 21.6211 0
      vertex 31.9314 21.5256 2
      vertex 32.125 21.6211 2
    endloop
  endfacet
  facet normal -0.442389 0.896823 0
    outer loop
      vertex 31.9314 21.5256 2
      vertex 32.125 21.6211 0
      vertex 31.9314 21.5256 0
    endloop
  endfacet
  facet normal -0.659488 0.751715 0
    outer loop
      vertex 32.4667 21.8833 0
      vertex 32.3045 21.741 2
      vertex 32.4667 21.8833 2
    endloop
  endfacet
  facet normal -0.659488 0.751715 0
    outer loop
      vertex 32.3045 21.741 2
      vertex 32.4667 21.8833 0
      vertex 32.3045 21.741 0
    endloop
  endfacet
  facet normal 0.0653198 0.997864 -0
    outer loop
      vertex 31.3 21.4 0
      vertex 31.0846 21.4141 2
      vertex 31.3 21.4 2
    endloop
  endfacet
  facet normal 0.0653198 0.997864 0
    outer loop
      vertex 31.0846 21.4141 2
      vertex 31.3 21.4 0
      vertex 31.0846 21.4141 0
    endloop
  endfacet
  facet normal 0.555448 0.831551 -0
    outer loop
      vertex 30.475 21.6211 0
      vertex 30.2955 21.741 2
      vertex 30.475 21.6211 2
    endloop
  endfacet
  facet normal 0.555448 0.831551 0
    outer loop
      vertex 30.2955 21.741 2
      vertex 30.475 21.6211 0
      vertex 30.2955 21.741 0
    endloop
  endfacet
  facet normal 0.980794 0.195047 0
    outer loop
      vertex 29.7062 22.6229 4
      vertex 29.6641 22.8346 0
      vertex 29.6641 22.8346 4
    endloop
  endfacet
  facet normal 0.980794 0.195047 0
    outer loop
      vertex 29.6641 22.8346 0
      vertex 29.7062 22.6229 4
      vertex 29.7062 22.6229 0
    endloop
  endfacet
  facet normal 0.751864 0.659318 -0
    outer loop
      vertex 30.1 21.9212 2
      vertex 29.991 22.0455 4
      vertex 30.1 21.9212 4
    endloop
  endfacet
  facet normal 0.751864 0.659318 0
    outer loop
      vertex 29.991 22.0455 4
      vertex 30.1 21.9212 2
      vertex 29.991 22.0455 0
    endloop
  endfacet
  facet normal 0.751224 0.660047 -0
    outer loop
      vertex 30.1333 21.8833 0
      vertex 30.1 21.9212 2
      vertex 30.1333 21.8833 2
    endloop
  endfacet
  facet normal 0.751715 0.659488 1.87465e-05
    outer loop
      vertex 30.1 21.9212 2
      vertex 30.1333 21.8833 0
      vertex 29.991 22.0455 0
    endloop
  endfacet
endsolid OpenSCAD_Model
